<svg width="908" height="807" viewBox="0 0 908 807" fill="none" xmlns="http://www.w3.org/2000/svg">
<path d="M336.507 38.3108L330.605 46.1798C335.869 52.5608 341.988 59.5568 349.011 66.9978C356.508 68.2828 363.945 69.9938 371.262 72.1938L371.899 71.8398L372.001 72.4238C375.647 73.5378 379.261 74.7798 382.839 76.1448C387.807 74.4878 395.184 72.3058 395.184 72.3058C395.184 72.3058 396.242 77.6878 401.413 84.6338C425.959 97.8798 447.895 118.476 464.486 149.232L466.656 158.668C479.438 156.026 487.182 -12.9562 347.451 1.28781L304.142 8.97181C304.142 8.97181 309.459 18.8238 321.421 34.5868C327.9 35.9638 336.507 38.3108 336.507 38.3108Z" fill="#DE6600"/>
<path d="M485.748 151.588C485.784 151.578 485.82 151.567 485.857 151.556C492.605 149.575 498.8 146.461 504.094 142.508C505.191 141.689 506.291 140.877 507.392 140.072L513.411 128.83L517.968 132.622C532.014 123.064 546.351 114.649 560.768 107.243L569.035 94.988L581.069 97.4819C614.995 82.2399 633.213 75.6269 664.176 69.0789C664.245 68.9249 664.238 68.9399 664.307 68.7859L657.465 62.3099C657.465 62.3099 679.007 59.4869 685.687 61.7969C714.385 52.0779 738.066 38.673 738.066 38.673L693.35 25.21C675.607 20.074 656.115 18.7799 636.975 21.8049C516.562 40.8309 469.016 156.497 485.748 151.588Z" fill="#DE6600"/>
<path d="M502.197 336.217C502.862 322.596 503.176 308.565 503.007 294.365C494.635 296.408 484.212 297.764 473.853 296.005C474.642 301.014 475.255 306.243 475.643 311.671C475.848 311.879 475.965 312.004 475.965 312.004C475.965 312.004 482.165 327.825 502.197 336.217Z" fill="#007A7A"/>
<path d="M450.408 419.859C458.315 421.088 477.215 423.39 493.742 420.531C494.604 414.735 495.454 408.646 496.269 402.3C487.531 398.484 474.118 391.822 466.339 384.022C462.447 395.643 457.23 407.624 450.408 419.859Z" fill="#007A7A"/>
<path d="M469.046 375.25C471.982 380.482 479.999 391.798 496.832 397.816C498.133 387.264 499.327 376.06 500.313 364.38C491.706 365.98 481.623 366.54 471.864 364.001C471.055 367.706 470.12 371.456 469.046 375.25Z" fill="#007A7A"/>
<path d="M500.706 359.565C501.191 353.384 501.616 347.079 501.966 340.676C493.915 337.01 483.227 331.43 476.113 324.964C476.103 335.629 475.158 346.928 472.936 358.732C479.712 359.97 490.86 361.357 500.706 359.565Z" fill="#007A7A"/>
<path d="M447.592 424.766C445.967 427.52 444.259 430.286 442.467 433.063C445.826 438.082 459.936 457.333 485.327 468.262C487.465 457.894 490.272 443.14 493.021 425.301C480.025 427.452 464.459 428.504 450.336 425.386C449.365 425.172 448.453 424.965 447.592 424.766Z" fill="#007A7A"/>
<path d="M637.326 515.421C645.779 489.156 650.066 461.846 650.066 434.249C650.066 407.538 646.046 381.07 638.118 355.58L616.079 362.435C623.316 385.702 626.986 409.865 626.986 434.249C626.986 459.442 623.073 484.374 615.356 508.349L637.326 515.421Z" fill="#DE6600"/>
<path d="M165.55 501.967C448.798 442.654 723.574 581.858 723.574 581.858C630.556 527.891 551.218 494.107 484.084 474.153C484.162 473.792 484.24 473.429 484.321 473.052C470.681 465.935 448.259 452.951 437.972 439.788C433.565 446.158 428.702 452.58 423.342 459.038C236.403 422.12 165.55 501.967 165.55 501.967Z" fill="#007A7A"/>
<path d="M173.38 676.994C265.696 677.443 355.247 691.117 434.197 709.424C401.639 720.39 367.537 725.957 332.439 725.957C260.081 725.957 189.642 701.321 134.099 656.586L119.622 674.561C179.252 722.588 254.832 749.037 332.439 749.037C381.222 749.037 428.24 739.04 472.187 719.324L471.908 718.702C617.489 756.582 718.64 806.564 718.64 806.564C329.474 593.194 173.38 676.994 173.38 676.994Z" fill="#007A7A"/>
<path d="M287.595 391.638C320.897 361.387 341.394 383.861 341.394 383.861L341.488 383.706C343.836 349.882 375.986 346.963 375.986 346.963C344.079 337.288 338.106 373.574 338.106 373.574C304.535 352.69 287.595 391.638 287.595 391.638Z" fill="#DE6600"/>
<path d="M231.789 429.991C215.178 399.332 185.194 421.785 185.194 421.785C223.921 413.14 229.819 439.31 229.819 439.31L229.959 439.233C246.524 414.337 272.436 426.134 272.436 426.134C252.207 404.79 231.789 429.991 231.789 429.991Z" fill="#007A7A"/>
<path d="M780.901 179.671L752.853 174.558L734.62 192.533L711.39 187.362L693.85 204.291L667.623 197.325L652.016 214.396L652.815 215.125L667.98 198.54L694.163 205.494L711.722 188.545L734.959 193.716L753.213 175.725L781.331 180.848L796.312 162.755L819.62 168.167L819.865 167.114L795.905 161.549L780.901 179.671Z" fill="#DE6600"/>
<path d="M317.621 46.4779L323.353 62.4589L324.371 62.0929L318.413 45.4839L301.741 43.4869L294.075 24.9609L293.076 25.3749L300.984 44.4879L317.621 46.4779Z" fill="#DE6600"/>
<path d="M575.165 323.084L584.777 344.862L610.364 348.939L610.535 347.871L585.529 343.888L575.92 322.115L551.889 318.026L541.95 292.775L518.95 290.327L518.836 291.403L541.184 293.781L551.106 318.989L575.165 323.084Z" fill="#007A7A"/>
<path d="M373.363 307.038L373.659 307.117L391.182 290.13L414.43 295.25L432.844 277.021L432.083 276.252L414.088 294.067L390.847 288.949L373.344 305.914L347.42 299.089L347.102 299.004L331.532 316.111L332.332 316.838L347.462 300.219L373.363 307.038Z" fill="#DE6600"/>
<path d="M232.636 196.367L256.415 190.875L273.676 207.268L298.859 201.172L298.605 200.122L273.993 206.079L256.739 189.689L232.988 195.176L214.088 175.704L191.92 182.306L192.228 183.343L213.768 176.926L232.636 196.367Z" fill="#007A7A"/>
<path d="M467.447 172.33L466.659 177.859L463.09 162.34C378.432 5.401 154.657 112.832 154.657 112.832C159.931 120.65 166.532 127.836 174.166 134.441L193.273 129.664L193.114 129.936C96.708 173.413 26.7339 261.914 7.64795 366.955L30.356 371.081C47.879 274.642 111.595 193.207 199.563 152.355C223.605 166.452 252.499 177.069 281.339 185.019L304.171 180.161L309.938 192.106C325.02 195.456 339.6 198.121 352.95 200.24C269.48 226.101 197.564 298.364 197.564 298.364C204.408 301.342 212.188 303.384 220.67 304.641L243.372 289.383L232.8 305.89C260.841 307.634 294.545 302.528 326.993 294.957L344.658 271.923L353.426 288.217C407.008 273.464 451.274 255.015 451.274 255.015L448.041 241.187L459.142 252.125L461.068 251.339C465.379 261.489 469.898 274.661 472.845 290.192C480.892 291.493 493.139 292.57 502.932 289.521C502.694 277.422 502.088 265.221 501.046 253.066L509.589 260.415L522.267 256.576L515.438 265.05C515.438 265.05 547.546 293.148 589.185 320.169L598.382 311.397L609.923 333.002C635.638 348.108 663.357 361.254 688.612 366.664L683.595 346.703L699.719 368.551C707.625 369.515 715.203 369.578 722.301 368.544C722.301 368.544 662.553 230.671 562.922 213.83L570.184 203.093L575.885 211.256C575.885 211.256 570.807 217.108 655.955 190.808L662.541 175.686L697.482 177.079C747.834 159.24 831.109 141.597 867.251 114.556L853.088 100.165L882.45 102.167C892.733 92.965 901.376 83.275 907.927 73.095C907.927 73.093 662.474 23.44 467.447 172.33ZM301.691 125.656C377.874 103.96 441.76 165.32 441.76 165.32C367.921 112.202 301.691 125.656 301.691 125.656ZM348.355 250.392C377.202 204.896 437.403 207.121 437.403 207.121C375.881 213.584 348.355 250.392 348.355 250.392ZM351.54 214.7C394.608 182.339 450.135 205.702 450.135 205.702C390.301 189.999 351.54 214.7 351.54 214.7ZM340.117 89.605C419.051 96.241 457.121 176.223 457.121 176.223C406.826 100.432 340.117 89.605 340.117 89.605ZM479.829 214.188L479.593 213.924C489.201 209.42 525.14 195.011 557.112 214.282C557.112 214.282 525.196 198.281 479.829 214.188ZM487.454 215.252C487.454 215.252 535.673 208.51 562.609 242.717C562.609 242.717 537.45 215.387 487.454 215.252ZM505.531 175.236C505.531 175.236 584.777 131.059 658.073 169.265C658.073 169.265 593.145 141.23 505.531 175.236ZM483.89 178.144C483.89 178.144 563.575 102.644 662.866 127.531C662.866 127.531 576.791 112.446 483.89 178.144Z" fill="#007A7A"/>
<path d="M198.621 618.555C197.393 621.076 195.971 623.323 194.355 625.297C192.766 627.115 191.243 628.061 189.788 628.136C186.695 628.415 184.515 627.565 183.247 625.585C181.979 623.605 181.725 621.315 182.486 618.715C185.316 609.563 189.004 600.075 193.55 590.251C198.123 580.27 203.151 570.447 208.632 560.78C214.14 550.958 219.894 541.578 225.893 532.641C232.075 523.575 238.176 515.458 244.196 508.29C245.186 507.174 246.162 506.616 247.124 506.618C248.267 506.491 249.202 506.649 249.928 507.093C250.813 506.6 251.841 506.212 253.01 505.929C254.18 505.645 255.311 505.595 256.402 505.78C256.869 505.859 257.323 506.016 257.764 506.251C258.361 506.513 258.905 507.086 259.397 507.972C259.888 508.857 260.391 510.146 260.907 511.839C261.604 513.401 262.339 515.692 263.11 518.712C263.946 527.039 265.054 535.653 266.433 544.553C267.969 553.48 269.583 562.421 271.274 571.374C271.768 571.297 272.171 571.285 272.482 571.338C272.976 571.261 273.47 571.184 273.964 571.107C275.705 571.241 277.639 571.648 279.768 572.329C281.897 573.01 283.192 574.353 283.655 576.357C284.194 578.856 283.695 580.858 282.158 582.364C280.621 583.869 278.071 585.204 274.509 586.367C275.69 591.703 276.885 596.961 278.092 602.141C279.326 607.164 280.651 612.124 282.068 617.018C282.092 617.824 282.114 619.112 282.135 620.881C282.183 622.494 282.062 624.159 281.772 625.876C281.664 627.463 281.335 628.932 280.786 630.283C280.237 631.635 279.455 632.466 278.441 632.776C277.271 633.06 276.115 632.784 274.974 631.949C273.989 631.14 273.03 630.176 272.098 629.055C271.192 627.778 270.364 626.515 269.614 625.264C269.046 623.884 268.607 622.686 268.298 621.671C266.52 616.074 264.819 610.489 263.197 604.918C261.757 599.217 260.395 593.53 259.11 587.855C252.355 587.997 245.002 587.877 237.052 587.496C229.258 587.141 221.595 586.487 214.063 585.534C211.346 591.174 208.642 596.735 205.952 602.219C203.444 607.573 201 613.018 198.621 618.555ZM248.437 525.861C238.551 540.721 229.6 555.739 221.584 570.916C232.077 572.369 243.443 572.927 255.682 572.589C252.473 557.441 250.059 541.864 248.437 525.861Z" fill="#007A7A"/>
<path d="M411.759 663.268C410.045 662.978 408.477 661.348 407.056 658.379C405.79 655.437 405.291 652.704 405.557 650.181C405.841 640.919 406.064 630.123 406.226 617.791C406.571 605.33 406.661 590.579 406.498 573.537C400.319 581.641 394.231 589.68 388.234 597.655C382.237 605.629 376.241 613.603 370.244 621.577C366.515 626.564 363.171 628.808 360.21 628.307C355.847 627.569 352.801 624.727 351.074 619.78C346.966 610.899 342.531 602.525 337.771 594.658C333.193 586.661 328.368 578.702 323.296 570.782C321.217 581.185 319.553 591.497 318.305 601.718C317.239 611.811 316.603 621.735 316.395 631.49C316.417 633.26 315.919 634.781 314.903 636.053C314.068 637.196 313.235 637.858 312.403 638.038C310.09 638.449 307.987 637.612 306.096 635.527C304.205 633.441 303.197 631.345 303.072 629.237C302.62 623.383 302.663 616.97 303.201 609.998C303.738 603.027 304.445 596.004 305.321 588.929C306.353 581.881 307.449 574.924 308.61 568.058C309.772 561.192 310.905 554.963 312.011 549.372C313.066 543.131 315.62 540.352 319.671 541.037C322.165 541.459 324.11 542.751 325.507 544.913C326.931 546.92 327.444 549.575 327.046 552.878C333.517 561.998 339.482 571.273 344.94 580.702C350.58 590.003 355.959 599.419 361.079 608.952C368.196 600.044 375.429 590.915 382.781 581.565C390.159 572.058 398.185 562.983 406.86 554.338C407.462 552.674 408.609 551.103 410.302 549.623C412.021 547.988 413.79 547.003 415.61 546.669C417.429 546.335 419.103 547.34 420.63 549.685C422.156 552.029 423.007 554.581 423.182 557.339C423.165 573.547 422.76 589.69 421.964 605.767C421.325 621.87 420.607 637.959 419.812 654.036C419.622 657.053 418.654 659.458 416.909 661.249C415.19 662.885 413.473 663.557 411.759 663.268Z" fill="#007A7A"/>
<path d="M468.794 643.54C468.844 644.191 468.764 645.14 468.553 646.389C468.368 647.481 467.936 648.612 467.258 649.781C466.606 650.794 465.733 651.69 464.64 652.468C463.728 653.117 462.494 653.309 460.936 653.046C457.877 650.281 455.482 646.907 453.752 642.923C453.297 638.031 453.039 632.449 452.977 626.179C453.071 619.935 453.361 613.484 453.846 606.825C454.358 600.009 455.038 593.142 455.887 586.224C456.893 579.332 458.014 572.7 459.252 566.328C459.437 565.236 459.752 563.845 460.198 562.155C460.8 560.491 461.545 558.931 462.432 557.476C463.346 555.865 464.362 554.593 465.482 553.659C466.628 552.568 468.058 552.168 469.772 552.458C471.798 552.801 473.329 553.702 474.364 555.161C475.4 556.62 475.68 558.754 475.205 561.563C473.993 567.778 472.859 574.488 471.801 581.692C470.925 588.767 470.191 595.946 469.601 603.229C469.01 610.513 468.602 617.666 468.376 624.69C468.332 631.585 468.471 637.868 468.794 643.54Z" fill="#007A7A"/>
<path d="M538.526 622.109C537.48 624.5 536.237 628.061 534.795 632.793C533.536 637.396 532.224 642.31 530.859 647.536C529.677 652.633 528.521 657.574 527.391 662.358C526.417 667.169 525.706 670.901 525.257 673.554C524.492 678.079 521.616 679.92 516.63 679.077C514.916 678.787 513.359 678.042 511.959 676.842C510.715 675.669 510.317 673.756 510.765 671.103C511.874 664.549 513.308 657.489 515.069 649.922C516.829 642.355 518.785 634.58 520.937 626.597C517.172 615.688 513.692 604.988 510.498 594.496C507.459 584.031 504.99 574.465 503.09 565.797C502.704 564.287 502.409 562.712 502.206 561.073C502.184 559.304 502.292 557.717 502.53 556.313C502.923 554.935 503.511 553.83 504.292 552.999C505.1 552.012 506.31 551.495 507.921 551.446C509.661 551.58 511.271 552.013 512.75 552.744C514.412 553.346 515.72 554.611 516.677 556.538C517.369 560.026 518.294 564.035 519.451 568.564C520.609 573.093 521.831 577.714 523.118 582.426C524.405 587.138 525.718 591.693 527.057 596.093C528.423 600.337 529.648 603.995 530.731 607.067C539.327 598.89 547.572 590.414 555.468 581.637C563.519 572.887 571.024 564.526 577.982 556.553C580.536 553.775 582.93 552.414 585.164 552.471C587.398 552.528 589.111 553.299 590.302 554.785C591.391 555.932 591.828 557.611 591.614 559.822C591.557 562.059 590.993 563.97 589.924 565.555C586.483 569.788 582.495 574.411 577.961 579.422C573.61 584.304 569.089 589.237 564.399 594.222C559.865 599.234 555.344 604.167 550.836 609.023C546.329 613.878 542.225 618.24 538.526 622.109Z" fill="#007A7A"/>
<path d="M616.935 668.594C616.985 669.244 616.905 670.194 616.694 671.442C616.509 672.534 616.077 673.665 615.399 674.834C614.746 675.848 613.874 676.743 612.78 677.522C611.869 678.17 610.635 678.362 609.076 678.099C606.018 675.335 603.623 671.96 601.893 667.976C601.438 663.084 601.18 657.503 601.118 651.232C601.212 644.989 601.502 638.537 601.987 631.878C602.498 625.063 603.179 618.196 604.028 611.277C605.034 604.385 606.155 597.753 607.393 591.382C607.578 590.289 607.893 588.898 608.339 587.208C608.941 585.544 609.686 583.985 610.573 582.53C611.487 580.919 612.503 579.646 613.623 578.712C614.769 577.622 616.199 577.221 617.913 577.511C619.939 577.854 621.469 578.755 622.505 580.214C623.54 581.673 623.821 583.807 623.346 586.616C622.134 592.831 621 599.541 619.941 606.745C619.066 613.82 618.332 620.999 617.742 628.283C617.151 635.566 616.743 642.72 616.516 649.744C616.472 656.638 616.612 662.921 616.935 668.594Z" fill="#007A7A"/>
<path d="M57.1589 673.79C50.4923 667.676 43.8402 657.792 37.2026 644.137C30.8432 630.354 24.9928 614.539 19.6513 596.69C14.5881 578.714 10.2411 559.756 6.61039 539.815C3.19869 519.447 1.13684 499.77 0.424835 480.785C-0.287166 461.8 0.557977 444.557 2.96026 429.056C5.64079 413.427 10.3729 401.279 17.1567 392.61C19.063 393.047 20.5761 398.409 21.6958 408.698C23.0346 418.559 24.2108 431.441 25.2245 447.342C26.179 462.943 27.1809 480.323 28.2304 499.481C29.5581 518.512 30.9953 537.329 32.542 555.933C34.3669 574.409 36.5411 591.579 39.0644 607.444C41.8067 622.882 45.2976 635.195 49.5372 644.383C53.9958 653.144 59.1349 657.666 64.9544 657.948C70.993 657.803 78.1913 651.236 86.5495 638.246C105.515 608.291 123.4 576.704 140.205 543.483C157.228 509.835 173.068 477.874 187.724 447.601C205.605 410.614 222.345 373.987 237.941 337.718C253.538 301.45 268.51 264.322 282.857 226.335C284.591 221.286 286.681 218.039 289.125 216.593C291.849 215.019 294.391 214.837 296.754 216.047C299.116 217.257 301.07 219.473 302.615 222.693C304.101 225.613 304.782 229.066 304.658 233.05C303.185 236.343 300.864 241.496 297.698 248.51C294.472 255.223 290.867 263.092 286.883 272.115C282.841 280.839 278.609 290.14 274.187 300.019C269.706 309.598 265.445 318.749 261.402 327.473C257.359 336.196 253.754 344.065 250.588 351.078C247.421 358.092 245.101 363.245 243.627 366.538C239.803 374.834 234.923 386.232 228.986 400.732C222.99 414.932 216.287 430.928 208.877 448.721C201.407 466.214 193.389 484.776 184.825 504.406C176.201 523.736 167.209 542.744 157.851 561.428C148.712 579.685 139.534 596.977 130.318 613.306C121.042 629.334 112.018 642.792 103.246 653.68C94.4136 664.268 86.0224 671.709 78.072 676.002C70.3406 679.868 63.3696 679.13 57.1589 673.79Z" fill="#DE6600"/>
</svg>
